<svg xmlns="http://www.w3.org/2000/svg" viewBox="0 0 900 740" class="town-art art-ceramic" role="img" aria-label="Hamlet — ceramic visual study"><defs><filter id="soft"><feGaussianBlur stdDeviation="5"/></filter><filter id="paper-shadow" x="-30%" y="-30%" width="170%" height="170%"><feDropShadow dx="3" dy="5" stdDeviation="1.5" flood-color="#696442" flood-opacity=".21"/></filter><radialGradient id="canopy" cx=".28" cy=".22" r=".85"><stop stop-color="#b8c7a0"/><stop offset=".6" stop-color="#9caf83"/><stop offset="1" stop-color="#7e946d"/></radialGradient><radialGradient id="bean" cx=".3" cy=".2" r=".9"><stop stop-color="#fffbed"/><stop offset="1" stop-color="#decfb0"/></radialGradient><pattern id="grain" width="19" height="23" patternUnits="userSpaceOnUse"><circle cx="3" cy="9" r=".45" fill="#5b6449" opacity=".14"/><circle cx="13" cy="19" r=".3" fill="#5b6449" opacity=".13"/></pattern></defs><ellipse cx="460.0" cy="480.0" rx="295.0" ry="100.0" fill="#698263" stroke="none" stroke-width="0" opacity=".08" filter="url(#soft)"/><polygon points="385.0,199.4 827.0,420.4 515.0,576.4 73.0,355.4" fill="var(--land,#d7e1c8)" stroke="var(--land,#d7e1c8)" stroke-width="4.5" stroke-linejoin="round" /><polygon points="125.0,313.2 593.0,547.2 551.4,568.0 83.4,334.0" fill="var(--road,#adbbaa)" stroke="var(--road,#adbbaa)" stroke-width="4.5" stroke-linejoin="round" /><polygon points="387.6,204.0 421.4,220.9 143.2,360.0 109.4,343.1" fill="var(--road,#adbbaa)" stroke="var(--road,#adbbaa)" stroke-width="4.5" stroke-linejoin="round" /><polygon points="378.5,245.6 732.1,422.4 544.9,516.0 191.3,339.2" fill="var(--pave,#e8e7d7)" stroke="var(--pave,#e8e7d7)" stroke-width="4.5" stroke-linejoin="round" /><polygon points="424.0,395.8 476.0,421.8 434.4,442.6 382.4,416.6" fill="#c6d4b7" stroke="#c6d4b7" stroke-width="4.5" stroke-linejoin="round" /><polygon points="677.5,409.7 724.3,433.1 628.1,481.2 581.3,457.8" fill="#c6d4b7" stroke="#c6d4b7" stroke-width="4.5" stroke-linejoin="round" /><polygon points="151.3,346.1 162.2,351.5 161.1,352.1 150.2,346.7" fill="#e5e8d8" stroke="#e5e8d8" stroke-width="4.5" stroke-linejoin="round" /><polygon points="203.3,372.1 214.2,377.5 213.1,378.1 202.2,372.7" fill="#e5e8d8" stroke="#e5e8d8" stroke-width="4.5" stroke-linejoin="round" /><polygon points="255.3,398.1 266.2,403.5 265.1,404.1 254.2,398.7" fill="#e5e8d8" stroke="#e5e8d8" stroke-width="4.5" stroke-linejoin="round" /><polygon points="307.3,424.1 318.2,429.5 317.1,430.1 306.2,424.7" fill="#e5e8d8" stroke="#e5e8d8" stroke-width="4.5" stroke-linejoin="round" /><polygon points="359.3,450.1 370.2,455.5 369.1,456.1 358.2,450.7" fill="#e5e8d8" stroke="#e5e8d8" stroke-width="4.5" stroke-linejoin="round" /><polygon points="411.3,476.1 422.2,481.5 421.1,482.1 410.2,476.7" fill="#e5e8d8" stroke="#e5e8d8" stroke-width="4.5" stroke-linejoin="round" /><polygon points="463.3,502.1 474.2,507.5 473.1,508.1 462.2,502.7" fill="#e5e8d8" stroke="#e5e8d8" stroke-width="4.5" stroke-linejoin="round" /><polygon points="515.3,528.1 526.2,533.5 525.1,534.1 514.2,528.7" fill="#e5e8d8" stroke="#e5e8d8" stroke-width="4.5" stroke-linejoin="round" /><polygon points="247.5,379.1 252.1,381.4 220.9,397.0 216.3,394.7" fill="#eaeade" stroke="#eaeade" stroke-width="4.5" stroke-linejoin="round" /><polygon points="257.9,384.3 262.5,386.6 231.3,402.2 226.7,399.9" fill="#eaeade" stroke="#eaeade" stroke-width="4.5" stroke-linejoin="round" /><polygon points="268.3,389.5 272.9,391.8 241.7,407.4 237.1,405.1" fill="#eaeade" stroke="#eaeade" stroke-width="4.5" stroke-linejoin="round" /><polygon points="278.7,394.7 283.3,397.0 252.1,412.6 247.5,410.3" fill="#eaeade" stroke="#eaeade" stroke-width="4.5" stroke-linejoin="round" /><polygon points="289.1,399.9 293.7,402.2 262.5,417.8 257.9,415.5" fill="#eaeade" stroke="#eaeade" stroke-width="4.5" stroke-linejoin="round" /><polygon points="248.9,340.4 259.8,345.8 245.5,353.0 234.6,347.5" fill="#f1ebdb" stroke="#f1ebdb" stroke-width="4.5" stroke-linejoin="round" /><polygon points="264.5,348.2 275.4,353.6 261.1,360.8 250.2,355.3" fill="#f1ebdb" stroke="#f1ebdb" stroke-width="4.5" stroke-linejoin="round" /><polygon points="280.1,356.0 291.0,361.4 276.7,368.6 265.8,363.1" fill="#f1ebdb" stroke="#f1ebdb" stroke-width="4.5" stroke-linejoin="round" /><ellipse cx="428.8" cy="254.4" rx="23.1" ry="9.5" fill="#617651" stroke="none" stroke-width="0" opacity=".12"/><defs><linearGradient id="face-1" x2=".7" y2="1"><stop stop-color="#b3a27d"/><stop offset=".78" stop-color="#a39372"/><stop offset="1" stop-color="#8f8164"/></linearGradient></defs><polygon points="415.4,252.4 418.8,254.1 418.8,193.6 415.4,191.9" fill="url(#face-1)" stroke="url(#face-1)" stroke-width="4.5" stroke-linejoin="round" /><polygon points="418.8,254.1 422.2,252.4 422.2,191.9 418.8,193.6" fill="#8c7e62" stroke="#8c7e62" stroke-width="4.5" stroke-linejoin="round" /><polygon points="418.8,190.2 422.2,191.9 418.8,193.6 415.4,191.9" fill="#ad9c79" stroke="#ad9c79" stroke-width="4.5" stroke-linejoin="round" /><path d="M415.41999999999996 194.92000000000002 L418.8 196.61 L422.18 194.92000000000002" fill="none" stroke="#b3a27d" stroke-width="5" stroke-linecap="round" stroke-linejoin="round" opacity=".65"/><ellipse cx="418.8" cy="187.3" rx="27.3" ry="41.0" fill="url(#canopy)" stroke="none" stroke-width="0" /><ellipse cx="399.9" cy="199.9" rx="17.9" ry="24.2" fill="url(#canopy)" stroke="none" stroke-width="0" /><ellipse cx="254.6" cy="325.9" rx="15.0" ry="6.1" fill="#617651" stroke="none" stroke-width="0" opacity=".12"/><defs><linearGradient id="face-2" x2=".7" y2="1"><stop stop-color="#b3a27d"/><stop offset=".78" stop-color="#a39372"/><stop offset="1" stop-color="#8f8164"/></linearGradient></defs><polygon points="241.2,323.9 244.6,325.6 244.6,286.4 241.2,284.7" fill="url(#face-2)" stroke="url(#face-2)" stroke-width="4.5" stroke-linejoin="round" /><polygon points="244.6,325.6 248.0,323.9 248.0,284.7 244.6,286.4" fill="#8c7e62" stroke="#8c7e62" stroke-width="4.5" stroke-linejoin="round" /><polygon points="244.6,283.0 248.0,284.7 244.6,286.4 241.2,284.7" fill="#ad9c79" stroke="#ad9c79" stroke-width="4.5" stroke-linejoin="round" /><path d="M241.21999999999997 287.73199999999997 L244.60000000000002 289.422 L247.98000000000002 287.73199999999997" fill="none" stroke="#b3a27d" stroke-width="5" stroke-linecap="round" stroke-linejoin="round" opacity=".65"/><ellipse cx="244.6" cy="281.7" rx="17.7" ry="26.5" fill="url(#canopy)" stroke="none" stroke-width="0" /><ellipse cx="232.4" cy="289.9" rx="11.6" ry="15.6" fill="url(#canopy)" stroke="none" stroke-width="0" /><g class="building building-home"><ellipse cx="335.6" cy="340.8" rx="84.0" ry="32.0" fill="#546a50" stroke="none" stroke-width="0" opacity=".12" filter="url(#soft)"/><polygon points="329.1,276.8 429.2,326.8 336.9,373.0 236.8,322.9" fill="#efeada" stroke="#efeada" stroke-width="4.5" stroke-linejoin="round" /><defs><linearGradient id="face-3" x2=".7" y2="1"><stop stop-color="#ffeec9"/><stop offset=".78" stop-color="#e9d8b7"/><stop offset="1" stop-color="#cdbea1"/></linearGradient></defs><polygon points="245.9,319.8 336.9,365.2 336.9,282.1 245.9,236.6" fill="url(#face-3)" stroke="url(#face-3)" stroke-width="4.5" stroke-linejoin="round" /><polygon points="336.9,365.2 420.1,323.6 420.1,240.4 336.9,282.1" fill="#c8ba9d" stroke="#c8ba9d" stroke-width="4.5" stroke-linejoin="round" /><polygon points="329.1,194.9 420.1,240.4 336.9,282.1 245.9,236.6" fill="#f7e5c2" stroke="#f7e5c2" stroke-width="4.5" stroke-linejoin="round" /><path d="M245.9 239.55 L336.9 285.05 L420.1 243.45" fill="none" stroke="#ffeec9" stroke-width="5" stroke-linecap="round" stroke-linejoin="round" opacity=".65"/><polygon points="261.9,289.7 280.1,298.8 280.1,268.4 261.9,259.3" fill="var(--window,#f7ecc4)" stroke="none" stroke-width="0" stroke-linejoin="round" class="window"/><polygon points="301.9,309.8 320.1,318.9 320.1,288.5 301.9,279.4" fill="var(--window,#f7ecc4)" stroke="none" stroke-width="0" stroke-linejoin="round" class="window"/><polygon points="387.3,300.4 370.4,308.9 370.4,283.3 387.3,274.8" fill="var(--window,#f7ecc4)" stroke="none" stroke-width="0" stroke-linejoin="round" class="window"/><polygon points="281.8,338.2 300.0,347.3 300.0,305.7 281.8,296.6" fill="#938873" stroke="#938873" stroke-width="4.5" stroke-linejoin="round" /><polygon points="283.5,325.8 297.8,333.0 297.8,305.1 283.5,298.0" fill="var(--window,#f7ecc4)" stroke="none" stroke-width="0" stroke-linejoin="round" class="window"/><polygon points="280.5,336.2 304.7,348.3 293.0,354.1 268.8,342.0" fill="#f3ead1" stroke="#f3ead1" stroke-width="4.5" stroke-linejoin="round" /><polygon points="236.8,235.9 338.2,286.6 291.4,228.9" fill="#f5e3c0" stroke="#f5e3c0" stroke-width="4.5" stroke-linejoin="round" /><polygon points="374.6,187.3 429.2,241.1 338.2,286.6 291.4,228.9" fill="#a6715c" stroke="#a6715c" stroke-width="4.5" stroke-linejoin="round" /><polygon points="327.8,190.4 374.6,187.3 291.4,228.9 236.8,235.9" fill="#bd8068" stroke="#bd8068" stroke-width="4.5" stroke-linejoin="round" /><path d="M236.8 235.89999999999998 L291.4 228.9 L338.2 286.6" fill="none" stroke="#cc8a70" stroke-width="7" stroke-linecap="round" stroke-linejoin="round" /><defs><linearGradient id="face-4" x2=".7" y2="1"><stop stop-color="#fae3c2"/><stop offset=".78" stop-color="#e3ceb0"/><stop offset="1" stop-color="#c8b59b"/></linearGradient></defs><polygon points="314.7,217.3 323.8,221.8 323.8,193.0 314.7,188.5" fill="url(#face-4)" stroke="url(#face-4)" stroke-width="4.5" stroke-linejoin="round" /><polygon points="323.8,221.8 334.7,216.4 334.7,187.6 323.8,193.0" fill="#c3b197" stroke="#c3b197" stroke-width="4.5" stroke-linejoin="round" /><polygon points="325.6,183.0 334.7,187.6 323.8,193.0 314.7,188.5" fill="#f1dabb" stroke="#f1dabb" stroke-width="4.5" stroke-linejoin="round" /><path d="M314.66999999999996 191.495 L323.77 196.04500000000002 L334.69 190.58499999999998" fill="none" stroke="#fae3c2" stroke-width="5" stroke-linecap="round" stroke-linejoin="round" opacity=".65"/><defs><linearGradient id="face-5" x2=".7" y2="1"><stop stop-color="#d08d72"/><stop offset=".78" stop-color="#bd8068"/><stop offset="1" stop-color="#a6715c"/></linearGradient></defs><polygon points="242.6,335.5 249.5,338.9 249.5,332.5 242.6,329.1" fill="url(#face-5)" stroke="url(#face-5)" stroke-width="4.5" stroke-linejoin="round" /><polygon points="249.5,338.9 256.5,335.5 256.5,329.1 249.5,332.5" fill="#a36e59" stroke="#a36e59" stroke-width="4.5" stroke-linejoin="round" /><polygon points="249.5,325.6 256.5,329.1 249.5,332.5 242.6,329.1" fill="#c8886e" stroke="#c8886e" stroke-width="4.5" stroke-linejoin="round" /><path d="M242.60666666666668 332.07000000000005 L249.54000000000002 335.5366666666667 L256.47333333333336 332.07000000000005" fill="none" stroke="#d08d72" stroke-width="5" stroke-linecap="round" stroke-linejoin="round" opacity=".65"/><ellipse cx="249.5" cy="321.9" rx="4.5" ry="7.0" fill="#9aaa78" stroke="none" stroke-width="0" /><defs><linearGradient id="face-6" x2=".7" y2="1"><stop stop-color="#d08d72"/><stop offset=".78" stop-color="#bd8068"/><stop offset="1" stop-color="#a6715c"/></linearGradient></defs><polygon points="309.9,369.1 316.9,372.6 316.9,366.2 309.9,362.7" fill="url(#face-6)" stroke="url(#face-6)" stroke-width="4.5" stroke-linejoin="round" /><polygon points="316.9,372.6 323.8,369.1 323.8,362.7 316.9,366.2" fill="#a36e59" stroke="#a36e59" stroke-width="4.5" stroke-linejoin="round" /><polygon points="316.9,359.3 323.8,362.7 316.9,366.2 309.9,362.7" fill="#c8886e" stroke="#c8886e" stroke-width="4.5" stroke-linejoin="round" /><path d="M309.94666666666666 365.74 L316.88 369.2066666666667 L323.81333333333333 365.74" fill="none" stroke="#d08d72" stroke-width="5" stroke-linecap="round" stroke-linejoin="round" opacity=".65"/><ellipse cx="316.9" cy="355.5" rx="4.5" ry="7.0" fill="#9aaa78" stroke="none" stroke-width="0" /></g><ellipse cx="652.4" cy="342.8" rx="24.2" ry="9.9" fill="#617651" stroke="none" stroke-width="0" opacity=".12"/><defs><linearGradient id="face-7" x2=".7" y2="1"><stop stop-color="#b3a27d"/><stop offset=".78" stop-color="#a39372"/><stop offset="1" stop-color="#8f8164"/></linearGradient></defs><polygon points="639.0,340.8 642.4,342.5 642.4,279.1 639.0,277.4" fill="url(#face-7)" stroke="url(#face-7)" stroke-width="4.5" stroke-linejoin="round" /><polygon points="642.4,342.5 645.8,340.8 645.8,277.4 642.4,279.1" fill="#8c7e62" stroke="#8c7e62" stroke-width="4.5" stroke-linejoin="round" /><polygon points="642.4,275.8 645.8,277.4 642.4,279.1 639.0,277.4" fill="#ad9c79" stroke="#ad9c79" stroke-width="4.5" stroke-linejoin="round" /><path d="M639.02 280.44 L642.4 282.13 L645.78 280.44" fill="none" stroke="#b3a27d" stroke-width="5" stroke-linecap="round" stroke-linejoin="round" opacity=".65"/><ellipse cx="642.4" cy="272.6" rx="28.6" ry="42.9" fill="url(#canopy)" stroke="none" stroke-width="0" /><ellipse cx="622.6" cy="285.8" rx="18.7" ry="25.3" fill="url(#canopy)" stroke="none" stroke-width="0" /><g class="building building-post"><ellipse cx="538.4" cy="364.2" rx="74.4" ry="28.0" fill="#546a50" stroke="none" stroke-width="0" opacity=".12" filter="url(#soft)"/><polygon points="531.9,305.4 621.6,350.2 539.7,391.2 450.0,346.3" fill="#efeada" stroke="#efeada" stroke-width="4.5" stroke-linejoin="round" /><defs><linearGradient id="face-8" x2=".7" y2="1"><stop stop-color="#c8dcbe"/><stop offset=".78" stop-color="#b6c8ad"/><stop offset="1" stop-color="#a0b098"/></linearGradient></defs><polygon points="459.1,343.1 539.7,383.4 539.7,309.9 459.1,269.6" fill="url(#face-8)" stroke="url(#face-8)" stroke-width="4.5" stroke-linejoin="round" /><polygon points="539.7,383.4 612.5,347.1 612.5,273.5 539.7,309.9" fill="#9dac95" stroke="#9dac95" stroke-width="4.5" stroke-linejoin="round" /><polygon points="531.9,233.2 612.5,273.5 539.7,309.9 459.1,269.6" fill="#c1d4b7" stroke="#c1d4b7" stroke-width="4.5" stroke-linejoin="round" /><path d="M459.1 272.55 L539.7 312.85 L612.5 276.45000000000005" fill="none" stroke="#c8dcbe" stroke-width="5" stroke-linecap="round" stroke-linejoin="round" opacity=".65"/><polygon points="472.2,311.7 490.4,320.8 490.4,290.4 472.2,281.3" fill="var(--window,#f7ecc4)" stroke="none" stroke-width="0" stroke-linejoin="round" class="window"/><polygon points="507.6,329.4 525.8,338.5 525.8,308.1 507.6,299.0" fill="var(--window,#f7ecc4)" stroke="none" stroke-width="0" stroke-linejoin="round" class="window"/><polygon points="584.9,321.2 568.0,329.7 568.0,304.1 584.9,295.6" fill="var(--window,#f7ecc4)" stroke="none" stroke-width="0" stroke-linejoin="round" class="window"/><polygon points="489.8,359.0 508.0,368.1 508.0,326.5 489.8,317.4" fill="#737e6d" stroke="#737e6d" stroke-width="4.5" stroke-linejoin="round" /><polygon points="491.5,346.6 505.8,353.8 505.8,325.9 491.5,318.8" fill="var(--window,#f7ecc4)" stroke="none" stroke-width="0" stroke-linejoin="round" class="window"/><polygon points="488.5,357.0 512.7,369.1 501.0,374.9 476.8,362.8" fill="#f3ead1" stroke="#f3ead1" stroke-width="4.5" stroke-linejoin="round" /><defs><linearGradient id="face-9" x2=".7" y2="1"><stop stop-color="#9cac94"/><stop offset=".78" stop-color="#8e9c87"/><stop offset="1" stop-color="#7d8977"/></linearGradient></defs><polygon points="451.3,269.6 539.7,313.8 539.7,305.8 451.3,261.6" fill="url(#face-9)" stroke="url(#face-9)" stroke-width="4.5" stroke-linejoin="round" /><polygon points="539.7,313.8 620.3,273.5 620.3,265.5 539.7,305.8" fill="#7a8674" stroke="#7a8674" stroke-width="4.5" stroke-linejoin="round" /><polygon points="531.9,221.2 620.3,265.5 539.7,305.8 451.3,261.6" fill="#97a58f" stroke="#97a58f" stroke-width="4.5" stroke-linejoin="round" /><path d="M451.3 264.55 L539.7 308.75 L620.3 268.45000000000005" fill="none" stroke="#9cac94" stroke-width="5" stroke-linecap="round" stroke-linejoin="round" opacity=".65"/><polygon points="484.8,299.5 511.9,313.0 511.9,298.6 484.8,285.1" fill="#f7edd7" stroke="#f7edd7" stroke-width="4.5" stroke-linejoin="round" /><path d="M485.88 287.76 L498.1 300.27 L510.32 299.98" fill="none" stroke="#7c8f76" stroke-width="1.3" stroke-linecap="round" stroke-linejoin="round" /><defs><linearGradient id="face-10" x2=".7" y2="1"><stop stop-color="#d08d72"/><stop offset=".78" stop-color="#bd8068"/><stop offset="1" stop-color="#a6715c"/></linearGradient></defs><polygon points="517.4,389.6 527.3,394.5 527.3,368.9 517.4,364.0" fill="url(#face-10)" stroke="url(#face-10)" stroke-width="4.5" stroke-linejoin="round" /><polygon points="527.3,394.5 536.7,389.9 536.7,364.3 527.3,368.9" fill="#a36e59" stroke="#a36e59" stroke-width="4.5" stroke-linejoin="round" /><polygon points="526.8,359.3 536.7,364.3 527.3,368.9 517.4,364.0" fill="#c8886e" stroke="#c8886e" stroke-width="4.5" stroke-linejoin="round" /><path d="M517.444 367.00199999999995 L527.3240000000001 371.94199999999995 L536.684 367.262" fill="none" stroke="#d08d72" stroke-width="5" stroke-linecap="round" stroke-linejoin="round" opacity=".65"/><defs><linearGradient id="face-11" x2=".7" y2="1"><stop stop-color="#d08d72"/><stop offset=".78" stop-color="#bd8068"/><stop offset="1" stop-color="#a6715c"/></linearGradient></defs><polygon points="454.4,358.1 461.3,361.6 461.3,355.2 454.4,351.7" fill="url(#face-11)" stroke="url(#face-11)" stroke-width="4.5" stroke-linejoin="round" /><polygon points="461.3,361.6 468.2,358.1 468.2,351.7 461.3,355.2" fill="#a36e59" stroke="#a36e59" stroke-width="4.5" stroke-linejoin="round" /><polygon points="461.3,348.3 468.2,351.7 461.3,355.2 454.4,351.7" fill="#c8886e" stroke="#c8886e" stroke-width="4.5" stroke-linejoin="round" /><path d="M454.35066666666665 354.742 L461.284 358.2086666666667 L468.21733333333333 354.742" fill="none" stroke="#d08d72" stroke-width="5" stroke-linecap="round" stroke-linejoin="round" opacity=".65"/><ellipse cx="461.3" cy="344.5" rx="4.5" ry="7.0" fill="#9aaa78" stroke="none" stroke-width="0" /><defs><linearGradient id="face-12" x2=".7" y2="1"><stop stop-color="#d08d72"/><stop offset=".78" stop-color="#bd8068"/><stop offset="1" stop-color="#a6715c"/></linearGradient></defs><polygon points="514.0,388.0 520.9,391.4 520.9,385.0 514.0,381.6" fill="url(#face-12)" stroke="url(#face-12)" stroke-width="4.5" stroke-linejoin="round" /><polygon points="520.9,391.4 527.9,388.0 527.9,381.6 520.9,385.0" fill="#a36e59" stroke="#a36e59" stroke-width="4.5" stroke-linejoin="round" /><polygon points="520.9,378.1 527.9,381.6 520.9,385.0 514.0,381.6" fill="#c8886e" stroke="#c8886e" stroke-width="4.5" stroke-linejoin="round" /><path d="M513.9946666666667 384.564 L520.928 388.0306666666667 L527.8613333333333 384.564" fill="none" stroke="#d08d72" stroke-width="5" stroke-linecap="round" stroke-linejoin="round" opacity=".65"/><ellipse cx="520.9" cy="374.4" rx="4.5" ry="7.0" fill="#9aaa78" stroke="none" stroke-width="0" /></g><ellipse cx="725.2" cy="428.6" rx="20.7" ry="8.5" fill="#617651" stroke="none" stroke-width="0" opacity=".12"/><defs><linearGradient id="face-13" x2=".7" y2="1"><stop stop-color="#b3a27d"/><stop offset=".78" stop-color="#a39372"/><stop offset="1" stop-color="#8f8164"/></linearGradient></defs><polygon points="711.8,426.6 715.2,428.3 715.2,374.1 711.8,372.5" fill="url(#face-13)" stroke="url(#face-13)" stroke-width="4.5" stroke-linejoin="round" /><polygon points="715.2,428.3 718.6,426.6 718.6,372.5 715.2,374.1" fill="#8c7e62" stroke="#8c7e62" stroke-width="4.5" stroke-linejoin="round" /><polygon points="715.2,370.8 718.6,372.5 715.2,374.1 711.8,372.5" fill="#ad9c79" stroke="#ad9c79" stroke-width="4.5" stroke-linejoin="round" /><path d="M711.8199999999999 375.456 L715.2 377.146 L718.5799999999999 375.456" fill="none" stroke="#b3a27d" stroke-width="5" stroke-linecap="round" stroke-linejoin="round" opacity=".65"/><ellipse cx="715.2" cy="368.3" rx="24.4" ry="36.7" fill="url(#canopy)" stroke="none" stroke-width="0" /><ellipse cx="698.3" cy="379.6" rx="16.0" ry="21.6" fill="url(#canopy)" stroke="none" stroke-width="0" /><g class="building building-library"><ellipse cx="567.0" cy="459.1" rx="84.0" ry="32.0" fill="#546a50" stroke="none" stroke-width="0" opacity=".12" filter="url(#soft)"/><polygon points="560.5,395.1 660.6,445.1 568.3,491.3 468.2,441.2" fill="#efeada" stroke="#efeada" stroke-width="4.5" stroke-linejoin="round" /><defs><linearGradient id="face-14" x2=".7" y2="1"><stop stop-color="#b3cfd8"/><stop offset=".78" stop-color="#a3bcc4"/><stop offset="1" stop-color="#8fa5ac"/></linearGradient></defs><polygon points="477.3,438.1 568.3,483.6 568.3,400.4 477.3,354.9" fill="url(#face-14)" stroke="url(#face-14)" stroke-width="4.5" stroke-linejoin="round" /><polygon points="568.3,483.6 651.5,441.9 651.5,358.8 568.3,400.4" fill="#8ca2a9" stroke="#8ca2a9" stroke-width="4.5" stroke-linejoin="round" /><polygon points="560.5,313.2 651.5,358.8 568.3,400.4 477.3,354.9" fill="#adc7d0" stroke="#adc7d0" stroke-width="4.5" stroke-linejoin="round" /><path d="M477.3 357.85 L568.3 403.35 L651.5 361.75" fill="none" stroke="#b3cfd8" stroke-width="5" stroke-linecap="round" stroke-linejoin="round" opacity=".65"/><polygon points="493.3,408.0 511.5,417.1 511.5,386.7 493.3,377.6" fill="var(--window,#f7ecc4)" stroke="none" stroke-width="0" stroke-linejoin="round" class="window"/><polygon points="533.3,428.1 551.5,437.2 551.5,406.8 533.3,397.7" fill="var(--window,#f7ecc4)" stroke="none" stroke-width="0" stroke-linejoin="round" class="window"/><polygon points="618.7,418.7 601.8,427.2 601.8,401.6 618.7,393.1" fill="var(--window,#f7ecc4)" stroke="none" stroke-width="0" stroke-linejoin="round" class="window"/><polygon points="513.2,456.5 531.4,465.6 531.4,424.0 513.2,414.9" fill="#67767b" stroke="#67767b" stroke-width="4.5" stroke-linejoin="round" /><polygon points="514.9,444.1 529.2,451.3 529.2,423.4 514.9,416.3" fill="var(--window,#f7ecc4)" stroke="none" stroke-width="0" stroke-linejoin="round" class="window"/><polygon points="511.9,454.5 536.1,466.6 524.4,472.4 500.2,460.3" fill="#f3ead1" stroke="#f3ead1" stroke-width="4.5" stroke-linejoin="round" /><polygon points="468.2,354.2 569.6,404.9 522.8,347.2" fill="#f5e3c0" stroke="#f5e3c0" stroke-width="4.5" stroke-linejoin="round" /><polygon points="606.0,305.6 660.6,359.4 569.6,404.9 522.8,347.2" fill="#69848d" stroke="#69848d" stroke-width="4.5" stroke-linejoin="round" /><polygon points="559.2,308.7 606.0,305.6 522.8,347.2 468.2,354.2" fill="#7796a0" stroke="#7796a0" stroke-width="4.5" stroke-linejoin="round" /><path d="M468.2 354.2 L522.8 347.20000000000005 L569.6 404.9" fill="none" stroke="#81a2ad" stroke-width="7" stroke-linecap="round" stroke-linejoin="round" /><polygon points="507.5,387.9 536.1,402.2 536.1,392.6 507.5,378.3" fill="#f4e8d0" stroke="#f4e8d0" stroke-width="4.5" stroke-linejoin="round" /><polygon points="509.8,387.8 512.4,389.1 512.4,381.7 509.8,380.4" fill="#bc8068" stroke="#bc8068" stroke-width="4.5" stroke-linejoin="round" /><polygon points="514.7,390.2 517.3,391.5 517.3,384.2 514.7,382.9" fill="#7a9784" stroke="#7a9784" stroke-width="4.5" stroke-linejoin="round" /><polygon points="519.7,392.7 522.3,394.0 522.3,386.6 519.7,385.3" fill="#c7b06d" stroke="#c7b06d" stroke-width="4.5" stroke-linejoin="round" /><polygon points="524.6,395.2 527.2,396.5 527.2,389.1 524.6,387.8" fill="#bc8068" stroke="#bc8068" stroke-width="4.5" stroke-linejoin="round" /><polygon points="529.6,397.6 532.2,398.9 532.2,391.6 529.6,390.3" fill="#7a9784" stroke="#7a9784" stroke-width="4.5" stroke-linejoin="round" /><defs><linearGradient id="face-15" x2=".7" y2="1"><stop stop-color="#d08d72"/><stop offset=".78" stop-color="#bd8068"/><stop offset="1" stop-color="#a6715c"/></linearGradient></defs><polygon points="474.0,453.8 480.9,457.2 480.9,450.8 474.0,447.4" fill="url(#face-15)" stroke="url(#face-15)" stroke-width="4.5" stroke-linejoin="round" /><polygon points="480.9,457.2 487.9,453.8 487.9,447.4 480.9,450.8" fill="#a36e59" stroke="#a36e59" stroke-width="4.5" stroke-linejoin="round" /><polygon points="480.9,443.9 487.9,447.4 480.9,450.8 474.0,447.4" fill="#c8886e" stroke="#c8886e" stroke-width="4.5" stroke-linejoin="round" /><path d="M474.00666666666666 450.37 L480.94 453.8366666666667 L487.87333333333333 450.37" fill="none" stroke="#d08d72" stroke-width="5" stroke-linecap="round" stroke-linejoin="round" opacity=".65"/><ellipse cx="480.9" cy="440.2" rx="4.5" ry="7.0" fill="#9aaa78" stroke="none" stroke-width="0" /><defs><linearGradient id="face-16" x2=".7" y2="1"><stop stop-color="#d08d72"/><stop offset=".78" stop-color="#bd8068"/><stop offset="1" stop-color="#a6715c"/></linearGradient></defs><polygon points="541.3,487.4 548.3,490.9 548.3,484.5 541.3,481.0" fill="url(#face-16)" stroke="url(#face-16)" stroke-width="4.5" stroke-linejoin="round" /><polygon points="548.3,490.9 555.2,487.4 555.2,481.0 548.3,484.5" fill="#a36e59" stroke="#a36e59" stroke-width="4.5" stroke-linejoin="round" /><polygon points="548.3,477.6 555.2,481.0 548.3,484.5 541.3,481.0" fill="#c8886e" stroke="#c8886e" stroke-width="4.5" stroke-linejoin="round" /><path d="M541.3466666666667 484.04 L548.28 487.5066666666667 L555.2133333333334 484.04" fill="none" stroke="#d08d72" stroke-width="5" stroke-linecap="round" stroke-linejoin="round" opacity=".65"/><ellipse cx="548.3" cy="473.8" rx="4.5" ry="7.0" fill="#9aaa78" stroke="none" stroke-width="0" /></g><ellipse cx="592.6" cy="497.5" rx="18.0" ry="7.4" fill="#617651" stroke="none" stroke-width="0" opacity=".12"/><defs><linearGradient id="face-17" x2=".7" y2="1"><stop stop-color="#b3a27d"/><stop offset=".78" stop-color="#a39372"/><stop offset="1" stop-color="#8f8164"/></linearGradient></defs><polygon points="579.2,495.5 582.6,497.2 582.6,450.0 579.2,448.3" fill="url(#face-17)" stroke="url(#face-17)" stroke-width="4.5" stroke-linejoin="round" /><polygon points="582.6,497.2 586.0,495.5 586.0,448.3 582.6,450.0" fill="#8c7e62" stroke="#8c7e62" stroke-width="4.5" stroke-linejoin="round" /><polygon points="582.6,446.6 586.0,448.3 582.6,450.0 579.2,448.3" fill="#ad9c79" stroke="#ad9c79" stroke-width="4.5" stroke-linejoin="round" /><path d="M579.22 451.26800000000003 L582.6 452.95799999999997 L585.98 451.26800000000003" fill="none" stroke="#b3a27d" stroke-width="5" stroke-linecap="round" stroke-linejoin="round" opacity=".65"/><ellipse cx="582.6" cy="444.7" rx="21.3" ry="32.0" fill="url(#canopy)" stroke="none" stroke-width="0" /><ellipse cx="567.8" cy="454.5" rx="13.9" ry="18.9" fill="url(#canopy)" stroke="none" stroke-width="0" /><defs><linearGradient id="face-18" x2=".7" y2="1"><stop stop-color="#ceb48c"/><stop offset=".78" stop-color="#bba47f"/><stop offset="1" stop-color="#a59070"/></linearGradient></defs><polygon points="399.6,405.2 425.6,418.2 425.6,416.3 399.6,403.3" fill="url(#face-18)" stroke="url(#face-18)" stroke-width="4.5" stroke-linejoin="round" /><polygon points="425.6,418.2 427.6,417.2 427.6,415.3 425.6,416.3" fill="#a18d6d" stroke="#a18d6d" stroke-width="4.5" stroke-linejoin="round" /><polygon points="401.6,402.3 427.6,415.3 425.6,416.3 399.6,403.3" fill="#c6ae87" stroke="#c6ae87" stroke-width="4.5" stroke-linejoin="round" /><path d="M399.56 406.29999999999995 L425.56 419.29999999999995 L427.64 418.26" fill="none" stroke="#ceb48c" stroke-width="5" stroke-linecap="round" stroke-linejoin="round" opacity=".65"/><defs><linearGradient id="face-19" x2=".7" y2="1"><stop stop-color="#ceb48c"/><stop offset=".78" stop-color="#bba47f"/><stop offset="1" stop-color="#a59070"/></linearGradient></defs><polygon points="396.2,406.9 422.2,419.9 422.2,418.0 396.2,405.0" fill="url(#face-19)" stroke="url(#face-19)" stroke-width="4.5" stroke-linejoin="round" /><polygon points="422.2,419.9 424.3,418.9 424.3,416.9 422.2,418.0" fill="#a18d6d" stroke="#a18d6d" stroke-width="4.5" stroke-linejoin="round" /><polygon points="398.3,403.9 424.3,416.9 422.2,418.0 396.2,405.0" fill="#c6ae87" stroke="#c6ae87" stroke-width="4.5" stroke-linejoin="round" /><path d="M396.18 407.98999999999995 L422.18 420.98999999999995 L424.26 419.95" fill="none" stroke="#ceb48c" stroke-width="5" stroke-linecap="round" stroke-linejoin="round" opacity=".65"/><defs><linearGradient id="face-20" x2=".7" y2="1"><stop stop-color="#ceb48c"/><stop offset=".78" stop-color="#bba47f"/><stop offset="1" stop-color="#a59070"/></linearGradient></defs><polygon points="392.8,408.6 418.8,421.6 418.8,419.7 392.8,406.7" fill="url(#face-20)" stroke="url(#face-20)" stroke-width="4.5" stroke-linejoin="round" /><polygon points="418.8,421.6 420.9,420.6 420.9,418.6 418.8,419.7" fill="#a18d6d" stroke="#a18d6d" stroke-width="4.5" stroke-linejoin="round" /><polygon points="394.9,405.6 420.9,418.6 418.8,419.7 392.8,406.7" fill="#c6ae87" stroke="#c6ae87" stroke-width="4.5" stroke-linejoin="round" /><path d="M392.8 409.67999999999995 L418.8 422.67999999999995 L420.88 421.64" fill="none" stroke="#ceb48c" stroke-width="5" stroke-linecap="round" stroke-linejoin="round" opacity=".65"/><defs><linearGradient id="face-21" x2=".7" y2="1"><stop stop-color="#98aa8f"/><stop offset=".78" stop-color="#8a9b82"/><stop offset="1" stop-color="#798872"/></linearGradient></defs><polygon points="393.6,422.6 395.7,423.6 395.7,410.8 393.6,409.8" fill="url(#face-21)" stroke="url(#face-21)" stroke-width="4.5" stroke-linejoin="round" /><polygon points="395.7,423.6 405.0,418.9 405.0,406.1 395.7,410.8" fill="#778570" stroke="#778570" stroke-width="4.5" stroke-linejoin="round" /><polygon points="402.9,405.1 405.0,406.1 395.7,410.8 393.6,409.8" fill="#92a48a" stroke="#92a48a" stroke-width="4.5" stroke-linejoin="round" /><path d="M393.58 412.77 L395.65999999999997 413.81 L405.02 409.13" fill="none" stroke="#98aa8f" stroke-width="5" stroke-linecap="round" stroke-linejoin="round" opacity=".65"/><defs><linearGradient id="face-22" x2=".7" y2="1"><stop stop-color="#98aa8f"/><stop offset=".78" stop-color="#8a9b82"/><stop offset="1" stop-color="#798872"/></linearGradient></defs><polygon points="414.4,433.0 416.5,434.0 416.5,421.2 414.4,420.2" fill="url(#face-22)" stroke="url(#face-22)" stroke-width="4.5" stroke-linejoin="round" /><polygon points="416.5,434.0 425.8,429.3 425.8,416.5 416.5,421.2" fill="#778570" stroke="#778570" stroke-width="4.5" stroke-linejoin="round" /><polygon points="423.7,415.5 425.8,416.5 416.5,421.2 414.4,420.2" fill="#92a48a" stroke="#92a48a" stroke-width="4.5" stroke-linejoin="round" /><path d="M414.38 423.17 L416.46 424.21 L425.82 419.53" fill="none" stroke="#98aa8f" stroke-width="5" stroke-linecap="round" stroke-linejoin="round" opacity=".65"/><defs><linearGradient id="face-23" x2=".7" y2="1"><stop stop-color="#a1bba1"/><stop offset=".78" stop-color="#92aa92"/><stop offset="1" stop-color="#809680"/></linearGradient></defs><polygon points="399.6,472.4 425.6,485.4 425.6,475.5 399.6,462.5" fill="url(#face-23)" stroke="url(#face-23)" stroke-width="4.5" stroke-linejoin="round" /><polygon points="425.6,485.4 438.0,479.1 438.0,469.2 425.6,475.5" fill="#7e927e" stroke="#7e927e" stroke-width="4.5" stroke-linejoin="round" /><polygon points="412.0,456.2 438.0,469.2 425.6,475.5 399.6,462.5" fill="#9bb49b" stroke="#9bb49b" stroke-width="4.5" stroke-linejoin="round" /><path d="M399.56 465.46 L425.56 478.46 L438.04 472.21999999999997" fill="none" stroke="#a1bba1" stroke-width="5" stroke-linecap="round" stroke-linejoin="round" opacity=".65"/><defs><linearGradient id="face-24" x2=".7" y2="1"><stop stop-color="#fefee6"/><stop offset=".78" stop-color="#e7e7d1"/><stop offset="1" stop-color="#cbcbb8"/></linearGradient></defs><polygon points="402.3,463.7 416.9,471.0 416.9,460.1 402.3,452.8" fill="url(#face-24)" stroke="url(#face-24)" stroke-width="4.5" stroke-linejoin="round" /><polygon points="416.9,471.0 429.1,464.9 429.1,454.0 416.9,460.1" fill="#c7c7b4" stroke="#c7c7b4" stroke-width="4.5" stroke-linejoin="round" /><polygon points="414.5,446.7 429.1,454.0 416.9,460.1 402.3,452.8" fill="#f5f5de" stroke="#f5f5de" stroke-width="4.5" stroke-linejoin="round" /><path d="M402.29 455.815 L416.85 463.09499999999997 L429.07 456.985" fill="none" stroke="#fefee6" stroke-width="5" stroke-linecap="round" stroke-linejoin="round" opacity=".65"/><polygon points="406.3,463.5 417.8,469.2 417.8,463.1 406.3,457.4" fill="#98b9b6" stroke="#98b9b6" stroke-width="4.5" stroke-linejoin="round" /><ellipse cx="403.2" cy="475.1" rx="4.7" ry="5.3" fill="#5d6f60" stroke="none" stroke-width="0" /><ellipse cx="421.4" cy="484.2" rx="4.7" ry="5.3" fill="#5d6f60" stroke="none" stroke-width="0" /><ellipse cx="325.2" cy="381.8" rx="13.0" ry="4.0" fill="#617651" stroke="none" stroke-width="0" opacity=".17"/><path d="M320.2 377.8l-3 6m12-6l3 6" fill="none" stroke="#69745f" stroke-width="2.5" stroke-linecap="round" stroke-linejoin="round" /><path d="M313.2 362.8Q312.2 347.8 325.2 346.8Q338.2 346.8 337.2 364.8Q336.2 376.8 324.2 376.8Q312.2 376.8 313.2 362.8Z" fill="url(#bean)" stroke="#8b8c73" stroke-width="0.8" stroke-linecap="round" stroke-linejoin="round" /><ellipse cx="321.2" cy="360.8" rx="1.2" ry="1.8" fill="#515a50" stroke="none" stroke-width="0" /><ellipse cx="329.2" cy="360.8" rx="1.2" ry="1.8" fill="#515a50" stroke="none" stroke-width="0" /><ellipse cx="369.4" cy="412.1" rx="4.0" ry="7.0" fill="#bd9b87" stroke="none" stroke-width="0" /><ellipse cx="369.4" cy="404.1" rx="3.0" ry="3.5" fill="#d8c6a7" stroke="none" stroke-width="0" /><ellipse cx="517.6" cy="486.2" rx="4.0" ry="7.0" fill="#bd9b87" stroke="none" stroke-width="0" /><ellipse cx="517.6" cy="478.2" rx="3.0" ry="3.5" fill="#d8c6a7" stroke="none" stroke-width="0" /></svg>