<svg xmlns="http://www.w3.org/2000/svg" viewBox="0 0 900 740" class="town-art art-paper" role="img" aria-label="Hamlet — paper visual study"><defs><filter id="soft"><feGaussianBlur stdDeviation="5"/></filter><filter id="paper-shadow" x="-30%" y="-30%" width="170%" height="170%"><feDropShadow dx="3" dy="5" stdDeviation="1.5" flood-color="#696442" flood-opacity=".21"/></filter><radialGradient id="canopy" cx=".28" cy=".22" r=".85"><stop stop-color="#b8c7a0"/><stop offset=".6" stop-color="#9caf83"/><stop offset="1" stop-color="#7e946d"/></radialGradient><radialGradient id="bean" cx=".3" cy=".2" r=".9"><stop stop-color="#fffbed"/><stop offset="1" stop-color="#decfb0"/></radialGradient><pattern id="grain" width="19" height="23" patternUnits="userSpaceOnUse"><circle cx="3" cy="9" r=".45" fill="#5b6449" opacity=".14"/><circle cx="13" cy="19" r=".3" fill="#5b6449" opacity=".13"/></pattern></defs><ellipse cx="460.0" cy="480.0" rx="295.0" ry="100.0" fill="#698263" stroke="none" stroke-width="0" opacity=".08" filter="url(#soft)"/><polygon points="87.5,365.3 716.5,365.3 812.5,521.3 183.5,521.3" fill="var(--land)" stroke="none" stroke-width="0" stroke-linejoin="round" /><polygon points="145.0,485.1 811.0,485.1 823.8,505.9 157.8,505.9" fill="var(--road)" stroke="none" stroke-width="0" stroke-linejoin="round" /><polygon points="102.4,364.9 150.6,364.9 236.2,504.0 188.0,504.0" fill="var(--road)" stroke="none" stroke-width="0" stroke-linejoin="round" /><polygon points="170.5,387.5 673.7,387.5 731.3,481.1 228.1,481.1" fill="var(--pave)" stroke="none" stroke-width="0" stroke-linejoin="round" /><polygon points="458.0,450.4 532.0,450.4 544.8,471.2 470.8,471.2" fill="#c6d4b7" stroke="none" stroke-width="0" stroke-linejoin="round" /><polygon points="623.0,394.2 689.6,394.2 719.2,442.3 652.6,442.3" fill="#c6d4b7" stroke="none" stroke-width="0" stroke-linejoin="round" /><polygon points="217.5,494.7 233.0,494.7 233.4,495.3 217.8,495.3" fill="#e5e8d8" stroke="none" stroke-width="0" stroke-linejoin="round" /><polygon points="291.5,494.7 307.0,494.7 307.3,495.3 291.8,495.3" fill="#e5e8d8" stroke="none" stroke-width="0" stroke-linejoin="round" /><polygon points="365.5,494.7 381.0,494.7 381.3,495.3 365.8,495.3" fill="#e5e8d8" stroke="none" stroke-width="0" stroke-linejoin="round" /><polygon points="439.5,494.7 455.0,494.7 455.3,495.3 439.8,495.3" fill="#e5e8d8" stroke="none" stroke-width="0" stroke-linejoin="round" /><polygon points="513.5,494.7 529.0,494.7 529.4,495.3 513.8,495.3" fill="#e5e8d8" stroke="none" stroke-width="0" stroke-linejoin="round" /><polygon points="587.5,494.7 603.0,494.7 603.4,495.3 587.8,495.3" fill="#e5e8d8" stroke="none" stroke-width="0" stroke-linejoin="round" /><polygon points="661.5,494.7 677.0,494.7 677.4,495.3 661.8,495.3" fill="#e5e8d8" stroke="none" stroke-width="0" stroke-linejoin="round" /><polygon points="735.5,494.7 751.0,494.7 751.4,495.3 735.8,495.3" fill="#e5e8d8" stroke="none" stroke-width="0" stroke-linejoin="round" /><polygon points="328.3,487.1 334.9,487.1 344.5,502.7 337.9,502.7" fill="#eaeade" stroke="none" stroke-width="0" stroke-linejoin="round" /><polygon points="343.1,487.1 349.7,487.1 359.3,502.7 352.7,502.7" fill="#eaeade" stroke="none" stroke-width="0" stroke-linejoin="round" /><polygon points="357.9,487.1 364.5,487.1 374.1,502.7 367.5,502.7" fill="#eaeade" stroke="none" stroke-width="0" stroke-linejoin="round" /><polygon points="372.7,487.1 379.3,487.1 388.9,502.7 382.3,502.7" fill="#eaeade" stroke="none" stroke-width="0" stroke-linejoin="round" /><polygon points="387.5,487.1 394.1,487.1 403.7,502.7 397.1,502.7" fill="#eaeade" stroke="none" stroke-width="0" stroke-linejoin="round" /><polygon points="263.9,466.7 279.5,466.7 283.9,473.9 268.3,473.9" fill="#f1ebdb" stroke="none" stroke-width="0" stroke-linejoin="round" /><polygon points="286.1,466.7 301.7,466.7 306.1,473.9 290.5,473.9" fill="#f1ebdb" stroke="none" stroke-width="0" stroke-linejoin="round" /><polygon points="308.3,466.7 323.9,466.7 328.3,473.9 312.7,473.9" fill="#f1ebdb" stroke="none" stroke-width="0" stroke-linejoin="round" /><ellipse cx="213.1" cy="383.5" rx="23.1" ry="9.5" fill="#617651" stroke="none" stroke-width="0" opacity=".12"/><polygon points="201.2,382.3 206.0,382.3 206.0,312.4 201.2,312.4" fill="#a39372" stroke="none" stroke-width="0" stroke-linejoin="round" /><polygon points="206.0,382.3 205.0,380.7 205.0,310.7 206.0,312.4" fill="#8c7e62" stroke="none" stroke-width="0" stroke-linejoin="round" /><polygon points="200.2,310.7 205.0,310.7 206.0,312.4 201.2,312.4" fill="#ad9c79" stroke="none" stroke-width="0" stroke-linejoin="round" /><g filter="url(#paper-shadow)"><path d="M203.1 278.59999999999997Q254.55 313.4 203.1 347.9Q160.04999999999998 313.4 203.1 278.59999999999997Z" fill="#89a271" stroke="none" stroke-width="0" stroke-linecap="round" stroke-linejoin="round" /><path d="M203.1 283.84999999999997v59.85" fill="none" stroke="#778d62" stroke-width="1" stroke-linecap="round" stroke-linejoin="round" /></g><g filter="url(#paper-shadow)"><path d="M184.2 309.764Q216.099 330.2 184.2 352.73Q157.509 330.2 184.2 309.764Z" fill="#89a271" stroke="none" stroke-width="0" stroke-linecap="round" stroke-linejoin="round" /><path d="M184.2 313.019v37.107" fill="none" stroke="#778d62" stroke-width="1" stroke-linecap="round" stroke-linejoin="round" /></g><g filter="url(#paper-shadow)"><path d="M222.0 306.908Q254.928 328.1 222.0 351.26000000000005Q194.448 328.1 222.0 306.908Z" fill="#89a271" stroke="none" stroke-width="0" stroke-linecap="round" stroke-linejoin="round" /><path d="M222.0 310.26800000000003v38.304" fill="none" stroke="#778d62" stroke-width="1" stroke-linecap="round" stroke-linejoin="round" /></g><ellipse cx="239.7" cy="462.8" rx="15.0" ry="6.1" fill="#617651" stroke="none" stroke-width="0" opacity=".12"/><polygon points="227.8,461.6 232.6,461.6 232.6,416.4 227.8,416.4" fill="#a39372" stroke="none" stroke-width="0" stroke-linejoin="round" /><polygon points="232.6,461.6 231.6,460.0 231.6,414.7 232.6,416.4" fill="#8c7e62" stroke="none" stroke-width="0" stroke-linejoin="round" /><polygon points="226.8,414.7 231.6,414.7 232.6,416.4 227.8,416.4" fill="#ad9c79" stroke="none" stroke-width="0" stroke-linejoin="round" /><g filter="url(#paper-shadow)"><path d="M229.70000000000002 394.15999999999997Q263.02000000000004 415.64 229.70000000000002 439.03999999999996Q201.82000000000002 415.64 229.70000000000002 394.15999999999997Z" fill="#89a271" stroke="none" stroke-width="0" stroke-linecap="round" stroke-linejoin="round" /><path d="M229.70000000000002 397.56v38.760000000000005" fill="none" stroke="#778d62" stroke-width="1" stroke-linecap="round" stroke-linejoin="round" /></g><g filter="url(#paper-shadow)"><path d="M217.46 414.3424Q238.1184 426.52 217.46 442.168Q200.1744 426.52 217.46 414.3424Z" fill="#89a271" stroke="none" stroke-width="0" stroke-linecap="round" stroke-linejoin="round" /><path d="M217.46 416.4504v24.031200000000002" fill="none" stroke="#778d62" stroke-width="1" stroke-linecap="round" stroke-linejoin="round" /></g><g filter="url(#paper-shadow)"><path d="M241.94000000000003 412.49280000000005Q263.26480000000004 425.16 241.94000000000003 441.216Q224.09680000000003 425.16 241.94000000000003 412.49280000000005Z" fill="#89a271" stroke="none" stroke-width="0" stroke-linecap="round" stroke-linejoin="round" /><path d="M241.94000000000003 414.66880000000003v24.806400000000004" fill="none" stroke="#778d62" stroke-width="1" stroke-linecap="round" stroke-linejoin="round" /></g><g class="building building-home"><ellipse cx="309.7" cy="446.5" rx="84.0" ry="32.0" fill="#546a50" stroke="none" stroke-width="0" opacity=".12" filter="url(#soft)"/><polygon points="198.1,415.1 340.5,415.1 368.9,461.2 226.5,461.2" fill="#efeada" stroke="none" stroke-width="0" stroke-linejoin="round" /><g filter="url(#paper-shadow)"><polygon points="231.6,455.2 361.1,455.2 361.1,359.1 231.6,359.1" fill="#e9d6b0" stroke="none" stroke-width="0" stroke-linejoin="round" /><polygon points="361.1,455.2 335.4,413.6 335.4,317.4 361.1,359.1" fill="#c8b897" stroke="none" stroke-width="0" stroke-linejoin="round" /><polygon points="205.9,317.4 335.4,317.4 361.1,359.1 231.6,359.1" fill="#f7e3bb" stroke="none" stroke-width="0" stroke-linejoin="round" /><polygon points="255.0,411.0 280.9,411.0 280.9,375.9 255.0,375.9" fill="var(--window)" stroke="none" stroke-width="0" stroke-linejoin="round" class="window"/><polygon points="312.0,411.0 337.9,411.0 337.9,375.9 312.0,375.9" fill="var(--window)" stroke="none" stroke-width="0" stroke-linejoin="round" class="window"/><polygon points="346.2,384.0 351.4,392.4 351.4,362.8 346.2,354.4" fill="var(--window)" stroke="none" stroke-width="0" stroke-linejoin="round" class="window"/><polygon points="283.5,455.5 309.4,455.5 309.4,407.4 283.5,407.4" fill="#93876f" stroke="none" stroke-width="0" stroke-linejoin="round" /><polygon points="286.3,440.1 306.7,440.1 306.7,407.9 286.3,407.9" fill="var(--window)" stroke="none" stroke-width="0" stroke-linejoin="round" class="window"/><polygon points="278.7,455.0 313.1,455.0 316.7,460.9 282.3,460.9" fill="#f3ead1" stroke="none" stroke-width="0" stroke-linejoin="round" /><polygon points="225.3,361.0 369.6,361.0 296.3,323.9" fill="#f5e1b9" stroke="none" stroke-width="0" stroke-linejoin="round" /><polygon points="270.7,282.3 341.6,315.5 369.6,361.0 296.3,323.9" fill="#a6634e" stroke="none" stroke-width="0" stroke-linejoin="round" /><polygon points="197.3,315.5 270.7,282.3 296.3,323.9 225.3,361.0" fill="#bd7159" stroke="none" stroke-width="0" stroke-linejoin="round" /><path d="M202.95 324.6 Q240.385 307.61 275.82 290.62" fill="none" stroke="#9f5f4b" stroke-width="0.85" stroke-linecap="round" stroke-linejoin="round" /><path d="M209.11 334.61 Q246.281 317.191 281.452 299.77199999999993" fill="none" stroke="#9f5f4b" stroke-width="0.85" stroke-linecap="round" stroke-linejoin="round" /><path d="M215.26999999999998 344.62 Q252.177 326.772 287.084 308.924" fill="none" stroke="#9f5f4b" stroke-width="0.85" stroke-linecap="round" stroke-linejoin="round" /><path d="M220.58999999999997 353.265 Q257.269 335.0465 291.948 316.828" fill="none" stroke="#9f5f4b" stroke-width="0.85" stroke-linecap="round" stroke-linejoin="round" /><polygon points="242.1,330.1 255.1,330.1 255.1,296.8 242.1,296.8" fill="#e3ceb0" stroke="none" stroke-width="0" stroke-linejoin="round" /><polygon points="255.1,330.1 251.7,324.7 251.7,291.4 255.1,296.8" fill="#c3b197" stroke="none" stroke-width="0" stroke-linejoin="round" /><polygon points="238.8,291.4 251.7,291.4 255.1,296.8 242.1,296.8" fill="#f1dabb" stroke="none" stroke-width="0" stroke-linejoin="round" /></g><polygon points="248.6,467.1 258.5,467.1 258.5,459.7 248.6,459.7" fill="#bd7159" stroke="none" stroke-width="0" stroke-linejoin="round" /><polygon points="258.5,467.1 256.3,463.6 256.3,456.2 258.5,459.7" fill="#a3614d" stroke="none" stroke-width="0" stroke-linejoin="round" /><polygon points="246.5,456.2 256.3,456.2 258.5,459.7 248.6,459.7" fill="#c8785e" stroke="none" stroke-width="0" stroke-linejoin="round" /><polygon points="252.5,459.2 245.5,445.2 249.5,443.2" fill="#89a271" stroke="none" stroke-width="0" stroke-linejoin="round" /><polygon points="252.5,459.2 259.5,445.2 255.5,443.2" fill="#89a271" stroke="none" stroke-width="0" stroke-linejoin="round" /><polygon points="344.4,467.1 354.3,467.1 354.3,459.7 344.4,459.7" fill="#bd7159" stroke="none" stroke-width="0" stroke-linejoin="round" /><polygon points="354.3,467.1 352.2,463.6 352.2,456.2 354.3,459.7" fill="#a3614d" stroke="none" stroke-width="0" stroke-linejoin="round" /><polygon points="342.3,456.2 352.2,456.2 354.3,459.7 344.4,459.7" fill="#c8785e" stroke="none" stroke-width="0" stroke-linejoin="round" /><polygon points="348.3,459.2 341.3,445.2 345.3,443.2" fill="#89a271" stroke="none" stroke-width="0" stroke-linejoin="round" /><polygon points="348.3,459.2 355.3,445.2 351.3,443.2" fill="#89a271" stroke="none" stroke-width="0" stroke-linejoin="round" /></g><ellipse cx="490.8" cy="371.8" rx="24.2" ry="9.9" fill="#617651" stroke="none" stroke-width="0" opacity=".12"/><polygon points="478.9,370.6 483.7,370.6 483.7,297.4 478.9,297.4" fill="#a39372" stroke="none" stroke-width="0" stroke-linejoin="round" /><polygon points="483.7,370.6 482.7,369.0 482.7,295.7 483.7,297.4" fill="#8c7e62" stroke="none" stroke-width="0" stroke-linejoin="round" /><polygon points="477.9,295.7 482.7,295.7 483.7,297.4 478.9,297.4" fill="#ad9c79" stroke="none" stroke-width="0" stroke-linejoin="round" /><g filter="url(#paper-shadow)"><path d="M480.8 262.0Q534.7 298.6 480.8 334.6Q435.7 298.6 480.8 262.0Z" fill="#89a271" stroke="none" stroke-width="0" stroke-linecap="round" stroke-linejoin="round" /><path d="M480.8 267.5v62.7" fill="none" stroke="#778d62" stroke-width="1" stroke-linecap="round" stroke-linejoin="round" /></g><g filter="url(#paper-shadow)"><path d="M461.0 294.64799999999997Q494.418 316.2 461.0 339.65999999999997Q433.038 316.2 461.0 294.64799999999997Z" fill="#89a271" stroke="none" stroke-width="0" stroke-linecap="round" stroke-linejoin="round" /><path d="M461.0 298.058v38.874" fill="none" stroke="#778d62" stroke-width="1" stroke-linecap="round" stroke-linejoin="round" /></g><g filter="url(#paper-shadow)"><path d="M500.6 291.656Q535.096 314.0 500.6 338.12Q471.73600000000005 314.0 500.6 291.656Z" fill="#89a271" stroke="none" stroke-width="0" stroke-linecap="round" stroke-linejoin="round" /><path d="M500.6 295.176v40.128" fill="none" stroke="#778d62" stroke-width="1" stroke-linecap="round" stroke-linejoin="round" /></g><g class="building building-post"><ellipse cx="463.3" cy="407.5" rx="74.4" ry="28.0" fill="#546a50" stroke="none" stroke-width="0" opacity=".12" filter="url(#soft)"/><polygon points="360.7,378.7 488.3,378.7 513.5,419.6 385.9,419.6" fill="#efeada" stroke="none" stroke-width="0" stroke-linejoin="round" /><g filter="url(#paper-shadow)"><polygon points="390.9,413.6 505.7,413.6 505.7,328.6 390.9,328.6" fill="#acc1a0" stroke="none" stroke-width="0" stroke-linejoin="round" /><polygon points="505.7,413.6 483.3,377.2 483.3,292.2 505.7,328.6" fill="#94a68a" stroke="none" stroke-width="0" stroke-linejoin="round" /><polygon points="368.6,292.2 483.3,292.2 505.7,328.6 390.9,328.6" fill="#b6cdaa" stroke="none" stroke-width="0" stroke-linejoin="round" /><polygon points="410.2,369.4 436.1,369.4 436.1,334.3 410.2,334.3" fill="var(--window)" stroke="none" stroke-width="0" stroke-linejoin="round" class="window"/><polygon points="460.7,369.4 486.6,369.4 486.6,334.3 460.7,334.3" fill="var(--window)" stroke="none" stroke-width="0" stroke-linejoin="round" class="window"/><polygon points="492.4,345.0 497.6,353.4 497.6,323.8 492.4,315.4" fill="var(--window)" stroke="none" stroke-width="0" stroke-linejoin="round" class="window"/><polygon points="435.5,413.9 461.4,413.9 461.4,365.8 435.5,365.8" fill="#6c7a65" stroke="none" stroke-width="0" stroke-linejoin="round" /><polygon points="438.3,398.5 458.7,398.5 458.7,366.3 438.3,366.3" fill="var(--window)" stroke="none" stroke-width="0" stroke-linejoin="round" class="window"/><polygon points="430.7,413.4 465.1,413.4 468.7,419.3 434.3,419.3" fill="#f3ead1" stroke="none" stroke-width="0" stroke-linejoin="round" /><polygon points="386.6,330.5 512.4,330.5 512.4,321.2 386.6,321.2" fill="#86977d" stroke="none" stroke-width="0" stroke-linejoin="round" /><polygon points="512.4,330.5 487.6,290.2 487.6,281.0 512.4,321.2" fill="#73826c" stroke="none" stroke-width="0" stroke-linejoin="round" /><polygon points="361.8,281.0 487.6,281.0 512.4,321.2 386.6,321.2" fill="#8ea084" stroke="none" stroke-width="0" stroke-linejoin="round" /><polygon points="429.4,347.6 467.9,347.6 467.9,330.9 429.4,330.9" fill="#f7edd7" stroke="none" stroke-width="0" stroke-linejoin="round" /><path d="M431.31 333.27000000000004 L448.70000000000005 340.67 L466.09000000000003 333.27000000000004" fill="none" stroke="#7c8f76" stroke-width="1.3" stroke-linecap="round" stroke-linejoin="round" /><polygon points="495.6,425.4 509.6,425.4 509.6,395.8 495.6,395.8" fill="#bd7159" stroke="none" stroke-width="0" stroke-linejoin="round" /><polygon points="509.6,425.4 506.8,420.8 506.8,391.2 509.6,395.8" fill="#a3614d" stroke="none" stroke-width="0" stroke-linejoin="round" /><polygon points="492.7,391.2 506.8,391.2 509.6,395.8 495.6,395.8" fill="#c8785e" stroke="none" stroke-width="0" stroke-linejoin="round" /></g><polygon points="405.9,425.5 415.8,425.5 415.8,418.1 405.9,418.1" fill="#bd7159" stroke="none" stroke-width="0" stroke-linejoin="round" /><polygon points="415.8,425.5 413.7,422.0 413.7,414.6 415.8,418.1" fill="#a3614d" stroke="none" stroke-width="0" stroke-linejoin="round" /><polygon points="403.8,414.6 413.7,414.6 415.8,418.1 405.9,418.1" fill="#c8785e" stroke="none" stroke-width="0" stroke-linejoin="round" /><polygon points="409.8,417.6 402.8,403.6 406.8,401.6" fill="#89a271" stroke="none" stroke-width="0" stroke-linejoin="round" /><polygon points="409.8,417.6 416.8,403.6 412.8,401.6" fill="#89a271" stroke="none" stroke-width="0" stroke-linejoin="round" /><polygon points="490.8,425.5 500.7,425.5 500.7,418.1 490.8,418.1" fill="#bd7159" stroke="none" stroke-width="0" stroke-linejoin="round" /><polygon points="500.7,425.5 498.6,422.0 498.6,414.6 500.7,418.1" fill="#a3614d" stroke="none" stroke-width="0" stroke-linejoin="round" /><polygon points="488.7,414.6 498.6,414.6 500.7,418.1 490.8,418.1" fill="#c8785e" stroke="none" stroke-width="0" stroke-linejoin="round" /><polygon points="494.7,417.6 487.7,403.6 491.7,401.6" fill="#89a271" stroke="none" stroke-width="0" stroke-linejoin="round" /><polygon points="494.7,417.6 501.7,403.6 497.7,401.6" fill="#89a271" stroke="none" stroke-width="0" stroke-linejoin="round" /></g><ellipse cx="679.9" cy="396.5" rx="20.7" ry="8.5" fill="#617651" stroke="none" stroke-width="0" opacity=".12"/><polygon points="668.0,395.3 672.8,395.3 672.8,332.7 668.0,332.7" fill="#a39372" stroke="none" stroke-width="0" stroke-linejoin="round" /><polygon points="672.8,395.3 671.8,393.7 671.8,331.1 672.8,332.7" fill="#8c7e62" stroke="none" stroke-width="0" stroke-linejoin="round" /><polygon points="667.0,331.1 671.8,331.1 672.8,332.7 668.0,332.7" fill="#ad9c79" stroke="none" stroke-width="0" stroke-linejoin="round" /><g filter="url(#paper-shadow)"><path d="M669.9 302.38000000000005Q715.9599999999999 333.22 669.9 364.42Q631.36 333.22 669.9 302.38000000000005Z" fill="#89a271" stroke="none" stroke-width="0" stroke-linecap="round" stroke-linejoin="round" /><path d="M669.9 307.08000000000004v53.58" fill="none" stroke="#778d62" stroke-width="1" stroke-linecap="round" stroke-linejoin="round" /></g><g filter="url(#paper-shadow)"><path d="M652.98 330.2792Q681.5372 348.26 652.98 368.74399999999997Q629.0852 348.26 652.98 330.2792Z" fill="#89a271" stroke="none" stroke-width="0" stroke-linecap="round" stroke-linejoin="round" /><path d="M652.98 333.1932v33.2196" fill="none" stroke="#778d62" stroke-width="1" stroke-linecap="round" stroke-linejoin="round" /></g><g filter="url(#paper-shadow)"><path d="M686.8199999999999 327.7224Q716.2983999999999 346.38 686.8199999999999 367.428Q662.1543999999999 346.38 686.8199999999999 327.7224Z" fill="#89a271" stroke="none" stroke-width="0" stroke-linecap="round" stroke-linejoin="round" /><path d="M686.8199999999999 330.7304v34.291199999999996" fill="none" stroke="#778d62" stroke-width="1" stroke-linecap="round" stroke-linejoin="round" /></g><g class="building building-library"><ellipse cx="643.5" cy="447.8" rx="84.0" ry="32.0" fill="#546a50" stroke="none" stroke-width="0" opacity=".12" filter="url(#soft)"/><polygon points="531.9,416.4 674.3,416.4 702.7,462.5 560.3,462.5" fill="#efeada" stroke="none" stroke-width="0" stroke-linejoin="round" /><g filter="url(#paper-shadow)"><polygon points="565.4,456.6 694.9,456.6 694.9,360.4 565.4,360.4" fill="#a8bfc7" stroke="none" stroke-width="0" stroke-linejoin="round" /><polygon points="694.9,456.6 669.2,414.9 669.2,318.8 694.9,360.4" fill="#90a4ab" stroke="none" stroke-width="0" stroke-linejoin="round" /><polygon points="539.8,318.8 669.2,318.8 694.9,360.4 565.4,360.4" fill="#b2cad3" stroke="none" stroke-width="0" stroke-linejoin="round" /><polygon points="588.8,412.3 614.7,412.3 614.7,377.2 588.8,377.2" fill="var(--window)" stroke="none" stroke-width="0" stroke-linejoin="round" class="window"/><polygon points="645.8,412.3 671.7,412.3 671.7,377.2 645.8,377.2" fill="var(--window)" stroke="none" stroke-width="0" stroke-linejoin="round" class="window"/><polygon points="680.0,385.3 685.2,393.7 685.2,364.1 680.0,355.7" fill="var(--window)" stroke="none" stroke-width="0" stroke-linejoin="round" class="window"/><polygon points="617.3,456.8 643.2,456.8 643.2,408.7 617.3,408.7" fill="#6a787d" stroke="none" stroke-width="0" stroke-linejoin="round" /><polygon points="620.1,441.4 640.5,441.4 640.5,409.2 620.1,409.2" fill="var(--window)" stroke="none" stroke-width="0" stroke-linejoin="round" class="window"/><polygon points="612.5,456.3 646.9,456.3 650.5,462.2 616.1,462.2" fill="#f3ead1" stroke="none" stroke-width="0" stroke-linejoin="round" /><polygon points="559.1,362.3 703.4,362.3 630.1,325.2" fill="#f5e1b9" stroke="none" stroke-width="0" stroke-linejoin="round" /><polygon points="604.5,283.6 675.4,316.8 703.4,362.3 630.1,325.2" fill="#69848d" stroke="none" stroke-width="0" stroke-linejoin="round" /><polygon points="531.1,316.8 604.5,283.6 630.1,325.2 559.1,362.3" fill="#7796a0" stroke="none" stroke-width="0" stroke-linejoin="round" /><path d="M536.75 325.90000000000003 Q574.185 308.91 609.62 291.92" fill="none" stroke="#647e86" stroke-width="0.85" stroke-linecap="round" stroke-linejoin="round" /><path d="M542.91 335.91 Q580.081 318.491 615.2520000000001 301.072" fill="none" stroke="#647e86" stroke-width="0.85" stroke-linecap="round" stroke-linejoin="round" /><path d="M549.0699999999999 345.92 Q585.977 328.072 620.884 310.22400000000005" fill="none" stroke="#647e86" stroke-width="0.85" stroke-linecap="round" stroke-linejoin="round" /><path d="M554.39 354.565 Q591.069 336.3465 625.7479999999999 318.12800000000004" fill="none" stroke="#647e86" stroke-width="0.85" stroke-linecap="round" stroke-linejoin="round" /><polygon points="610.1,380.5 650.8,380.5 650.8,369.4 610.1,369.4" fill="#f4e8d0" stroke="none" stroke-width="0" stroke-linejoin="round" /><polygon points="613.9,378.8 617.5,378.8 617.5,370.2 613.9,370.2" fill="#bc8068" stroke="none" stroke-width="0" stroke-linejoin="round" /><polygon points="620.9,378.8 624.6,378.8 624.6,370.2 620.9,370.2" fill="#7a9784" stroke="none" stroke-width="0" stroke-linejoin="round" /><polygon points="627.9,378.8 631.6,378.8 631.6,370.2 627.9,370.2" fill="#c7b06d" stroke="none" stroke-width="0" stroke-linejoin="round" /><polygon points="634.9,378.8 638.6,378.8 638.6,370.2 634.9,370.2" fill="#bc8068" stroke="none" stroke-width="0" stroke-linejoin="round" /><polygon points="642.0,378.8 645.7,378.8 645.7,370.2 642.0,370.2" fill="#7a9784" stroke="none" stroke-width="0" stroke-linejoin="round" /></g><polygon points="582.4,468.4 592.3,468.4 592.3,461.0 582.4,461.0" fill="#bd7159" stroke="none" stroke-width="0" stroke-linejoin="round" /><polygon points="592.3,468.4 590.1,464.9 590.1,457.5 592.3,461.0" fill="#a3614d" stroke="none" stroke-width="0" stroke-linejoin="round" /><polygon points="580.3,457.5 590.1,457.5 592.3,461.0 582.4,461.0" fill="#c8785e" stroke="none" stroke-width="0" stroke-linejoin="round" /><polygon points="586.3,460.5 579.3,446.5 583.3,444.5" fill="#89a271" stroke="none" stroke-width="0" stroke-linejoin="round" /><polygon points="586.3,460.5 593.3,446.5 589.3,444.5" fill="#89a271" stroke="none" stroke-width="0" stroke-linejoin="round" /><polygon points="678.2,468.4 688.1,468.4 688.1,461.0 678.2,461.0" fill="#bd7159" stroke="none" stroke-width="0" stroke-linejoin="round" /><polygon points="688.1,468.4 686.0,464.9 686.0,457.5 688.1,461.0" fill="#a3614d" stroke="none" stroke-width="0" stroke-linejoin="round" /><polygon points="676.1,457.5 686.0,457.5 688.1,461.0 678.2,461.0" fill="#c8785e" stroke="none" stroke-width="0" stroke-linejoin="round" /><polygon points="682.1,460.5 675.1,446.5 679.1,444.5" fill="#89a271" stroke="none" stroke-width="0" stroke-linejoin="round" /><polygon points="682.1,460.5 689.1,446.5 685.1,444.5" fill="#89a271" stroke="none" stroke-width="0" stroke-linejoin="round" /></g><ellipse cx="725.2" cy="464.1" rx="18.0" ry="7.4" fill="#617651" stroke="none" stroke-width="0" opacity=".12"/><polygon points="713.3,462.9 718.1,462.9 718.1,408.3 713.3,408.3" fill="#a39372" stroke="none" stroke-width="0" stroke-linejoin="round" /><polygon points="718.1,462.9 717.1,461.3 717.1,406.6 718.1,408.3" fill="#8c7e62" stroke="none" stroke-width="0" stroke-linejoin="round" /><polygon points="712.3,406.6 717.1,406.6 718.1,408.3 713.3,408.3" fill="#ad9c79" stroke="none" stroke-width="0" stroke-linejoin="round" /><g filter="url(#paper-shadow)"><path d="M715.2 381.74000000000007Q755.38 408.26000000000005 715.2 435.86000000000007Q681.58 408.26000000000005 715.2 381.74000000000007Z" fill="#89a271" stroke="none" stroke-width="0" stroke-linecap="round" stroke-linejoin="round" /><path d="M715.2 385.84000000000003v46.739999999999995" fill="none" stroke="#778d62" stroke-width="1" stroke-linecap="round" stroke-linejoin="round" /></g><g filter="url(#paper-shadow)"><path d="M700.44 406.0776Q725.3516000000001 421.38 700.44 439.632Q679.5956000000001 421.38 700.44 406.0776Z" fill="#89a271" stroke="none" stroke-width="0" stroke-linecap="round" stroke-linejoin="round" /><path d="M700.44 408.6196v28.978799999999996" fill="none" stroke="#778d62" stroke-width="1" stroke-linecap="round" stroke-linejoin="round" /></g><g filter="url(#paper-shadow)"><path d="M729.96 403.8472Q755.6752 419.74 729.96 438.48400000000004Q708.4432 419.74 729.96 403.8472Z" fill="#89a271" stroke="none" stroke-width="0" stroke-linecap="round" stroke-linejoin="round" /><path d="M729.96 406.4712v29.9136" fill="none" stroke="#778d62" stroke-width="1" stroke-linecap="round" stroke-linejoin="round" /></g><polygon points="479.0,454.3 516.0,454.3 516.0,452.1 479.0,452.1" fill="#bba47f" stroke="none" stroke-width="0" stroke-linejoin="round" /><polygon points="516.0,454.3 515.4,453.3 515.4,451.1 516.0,452.1" fill="#a18d6d" stroke="none" stroke-width="0" stroke-linejoin="round" /><polygon points="478.4,451.1 515.4,451.1 516.0,452.1 479.0,452.1" fill="#c6ae87" stroke="none" stroke-width="0" stroke-linejoin="round" /><polygon points="480.1,456.0 517.1,456.0 517.1,453.8 480.1,453.8" fill="#bba47f" stroke="none" stroke-width="0" stroke-linejoin="round" /><polygon points="517.1,456.0 516.4,455.0 516.4,452.8 517.1,453.8" fill="#a18d6d" stroke="none" stroke-width="0" stroke-linejoin="round" /><polygon points="479.4,452.8 516.4,452.8 517.1,453.8 480.1,453.8" fill="#c6ae87" stroke="none" stroke-width="0" stroke-linejoin="round" /><polygon points="481.1,457.7 518.1,457.7 518.1,455.5 481.1,455.5" fill="#bba47f" stroke="none" stroke-width="0" stroke-linejoin="round" /><polygon points="518.1,457.7 517.5,456.7 517.5,454.4 518.1,455.5" fill="#a18d6d" stroke="none" stroke-width="0" stroke-linejoin="round" /><polygon points="480.5,454.4 517.5,454.4 518.1,455.5 481.1,455.5" fill="#c6ae87" stroke="none" stroke-width="0" stroke-linejoin="round" /><polygon points="483.6,472.9 486.5,472.9 486.5,458.1 483.6,458.1" fill="#8a9b82" stroke="none" stroke-width="0" stroke-linejoin="round" /><polygon points="486.5,472.9 483.6,468.2 483.6,453.4 486.5,458.1" fill="#778570" stroke="none" stroke-width="0" stroke-linejoin="round" /><polygon points="480.7,453.4 483.6,453.4 486.5,458.1 483.6,458.1" fill="#92a48a" stroke="none" stroke-width="0" stroke-linejoin="round" /><polygon points="513.2,472.9 516.1,472.9 516.1,458.1 513.2,458.1" fill="#8a9b82" stroke="none" stroke-width="0" stroke-linejoin="round" /><polygon points="516.1,472.9 513.2,468.2 513.2,453.4 516.1,458.1" fill="#778570" stroke="none" stroke-width="0" stroke-linejoin="round" /><polygon points="510.3,453.4 513.2,453.4 516.1,458.1 513.2,458.1" fill="#92a48a" stroke="none" stroke-width="0" stroke-linejoin="round" /><polygon points="582.5,492.7 619.5,492.7 619.5,481.3 582.5,481.3" fill="#92aa92" stroke="none" stroke-width="0" stroke-linejoin="round" /><polygon points="619.5,492.7 615.7,486.5 615.7,475.0 619.5,481.3" fill="#7e927e" stroke="none" stroke-width="0" stroke-linejoin="round" /><polygon points="578.7,475.0 615.7,475.0 619.5,481.3 582.5,481.3" fill="#9bb49b" stroke="none" stroke-width="0" stroke-linejoin="round" /><polygon points="586.2,481.2 606.9,481.2 606.9,468.6 586.2,468.6" fill="#e7e7d1" stroke="none" stroke-width="0" stroke-linejoin="round" /><polygon points="606.9,481.2 603.1,475.1 603.1,462.5 606.9,468.6" fill="#c7c7b4" stroke="none" stroke-width="0" stroke-linejoin="round" /><polygon points="582.4,462.5 603.1,462.5 606.9,468.6 586.2,468.6" fill="#f5f5de" stroke="none" stroke-width="0" stroke-linejoin="round" /><polygon points="593.0,478.2 609.3,478.2 609.3,471.2 593.0,471.2" fill="#98b9b6" stroke="none" stroke-width="0" stroke-linejoin="round" /><ellipse cx="588.1" cy="493.6" rx="4.7" ry="5.3" fill="#5d6f60" stroke="none" stroke-width="0" /><ellipse cx="614.0" cy="493.6" rx="4.7" ry="5.3" fill="#5d6f60" stroke="none" stroke-width="0" /><ellipse cx="371.4" cy="470.6" rx="13.0" ry="4.0" fill="#617651" stroke="none" stroke-width="0" opacity=".17"/><path d="M366.40000000000003 466.6l-3 6m12-6l3 6" fill="none" stroke="#69745f" stroke-width="2.5" stroke-linecap="round" stroke-linejoin="round" /><path d="M359.40000000000003 451.6Q358.40000000000003 436.6 371.40000000000003 435.6Q384.40000000000003 435.6 383.40000000000003 453.6Q382.40000000000003 465.6 370.40000000000003 465.6Q358.40000000000003 465.6 359.40000000000003 451.6Z" fill="#fcf1d4" stroke="#8b8c73" stroke-width="0.8" stroke-linecap="round" stroke-linejoin="round" /><ellipse cx="367.4" cy="449.6" rx="1.2" ry="1.8" fill="#515a50" stroke="none" stroke-width="0" /><ellipse cx="375.4" cy="449.6" rx="1.2" ry="1.8" fill="#515a50" stroke="none" stroke-width="0" /><ellipse cx="465.8" cy="469.7" rx="4.0" ry="7.0" fill="#bd9b87" stroke="none" stroke-width="0" /><ellipse cx="465.8" cy="461.7" rx="3.0" ry="3.5" fill="#d8c6a7" stroke="none" stroke-width="0" /><ellipse cx="676.7" cy="469.7" rx="4.0" ry="7.0" fill="#bd9b87" stroke="none" stroke-width="0" /><ellipse cx="676.7" cy="461.7" rx="3.0" ry="3.5" fill="#d8c6a7" stroke="none" stroke-width="0" /><rect x="150" y="210" width="610" height="360" fill="url(#grain)" pointer-events="none"/></svg>